<?xml version="1.0" encoding="utf-8"?>
<!-- Generator: Adobe Illustrator 19.2.1, SVG Export Plug-In . SVG Version: 6.00 Build 0)  -->
<!DOCTYPE svg PUBLIC "-//W3C//DTD SVG 1.1//EN" "http://www.w3.org/Graphics/SVG/1.1/DTD/svg11.dtd">
<svg version="1.1" xmlns="http://www.w3.org/2000/svg" xmlns:xlink="http://www.w3.org/1999/xlink" x="0px" y="0px"
	 viewBox="0 0 399.4 317" style="enable-background:new 0 0 399.4 317;" xml:space="preserve">
<style type="text/css">
	.st0{fill:#FFFFFF;stroke:#009999;stroke-width:3;stroke-miterlimit:10;}
	.st1{fill:#009999;}
	.st2{fill:#009999;stroke:#FFFFFF;stroke-width:3;stroke-miterlimit:10;}
	.st3{fill:none;stroke:#009999;stroke-width:3;stroke-miterlimit:10;}
</style>
<g id="Layer_1">
	<path class="st0" d="M260,244.2c0,0,0.5,36-7,46.5c-7.5,10.5,4,28.5,37,23.5s3.5-88.5,3.5-88.5L260,244.2z"/>
	<path class="st0" d="M312.9,234.6c0,0,10.9,38.4,5.9,51.7c-5,13.4,12.5,29.3,46.3,14.5c33.8-14.9-21.8-95.6-21.8-95.6L312.9,234.6z
		"/>
	<path class="st0" d="M113.4,213.4c0,0-17.8,31.3-29.6,36.6c-11.8,5.3-11,26.6,20,39s47.8-74.6,47.8-74.6L113.4,213.4z"/>
	<path class="st0" d="M163.9,231.8c0,0-10,38.6-21.1,47.6c-11.1,9-4.1,31.6,32.6,35.9s29.6-93.5,29.6-93.5L163.9,231.8z"/>
	<path class="st1" d="M113,196.2c0,0-14,28,14,27c0,0-5,26,27,10c0,0,6,25,27,5c0,0,7,30,31,4c0,0,22,23,39,0c0,0,18,19,40-8
		c0,0,24,14,45-15c0,0,39,5,33-38c0,0,39-8,18-41c0,0,27-24-4-35c0,0,19-24-12-27c0,0,27-30-18-32c0,0,13-20-14-15c0,0-7-21-20-11
		c0,0-7-21-27-6c0,0-15-24-29-4c0,0-19-19-25-1c0,0-25-13-27,12L113,196.2z"/>
	<path class="st0" d="M247,123.2c0,44.7-61.3,80-116,80s-88-38.3-88-83s44.3-81,99-81S247,78.5,247,123.2z"/>
	<ellipse class="st2" cx="93" cy="101.2" rx="8" ry="12"/>
	<ellipse class="st2" cx="179" cy="101.2" rx="8" ry="12"/>
	<path class="st3" d="M106,178.2c0,0,11,19.5,17,2.5s4.5-25.5,4.5-25.5"/>
	<path class="st0" d="M136.5,179.2c0,0-0.5,19-13.5,1.5"/>
	<path class="st0" d="M68,57.7c0,0-109,55.6-48,83.5c10.2,4.7,21,4.5,39-22.5S68,57.7,68,57.7z"/>
	<path class="st0" d="M225.2,57.7c0,0,109,55.6,48,83.5c-10.2,4.7-21,4.5-39-22.5S225.2,57.7,225.2,57.7z"/>
	<path class="st2" d="M64.5,59.9c0,0-17.8-12.2-2.1-20.7c0,0-3.1-19.1,15.2-12.8c0,0,8.9-20.2,25.1-6.9c0,0,15.2-21.8,29.8-6.4
		c0,0,13.6-18.6,22.5-0.5c0,0,18.8-13.8,25.1,4.3c0,0,22-9,22,9c0,0,25.6-8.5,25.6,12.8c0,0,16.2-0.5,3.7,17c0,0,3.1,28.2-23.5,15.4
		c0,0-16.7,13.8-26.2-3.7c0,0-7.3,17-18.8,4.8c0,0-17.3,20.2-27.2,0c0,0-8.9,19.1-26.7,2.1c0,0-5.2,15.4-23,3.2
		C85.9,77.4,57.1,81.2,64.5,59.9z"/>
	<ellipse class="st2" cx="126.1" cy="143.2" rx="39" ry="25.8"/>
</g>
<g id="Layer_2">
</g>
</svg>
